<?xml version="1.0" encoding="UTF-8" standalone="no"?>
<!DOCTYPE svg PUBLIC "-//W3C//DTD SVG 1.1//EN"
 "http://www.w3.org/Graphics/SVG/1.1/DTD/svg11.dtd">
<!-- Generated by graphviz version 12.2.0 (20241103.1931)
 -->
<!-- Pages: 1 -->
<svg width="280pt" height="316pt"
 viewBox="0.00 0.00 279.75 316.00" xmlns="http://www.w3.org/2000/svg" xmlns:xlink="http://www.w3.org/1999/xlink">
<g id="graph0" class="graph" transform="scale(1 1) rotate(0) translate(4 312)">
<polygon fill="white" stroke="none" points="-4,4 -4,-312 275.75,-312 275.75,4 -4,4"/>
<!-- node000001a3cefb1830 -->
<g id="node1" class="node">
<title>node000001a3cefb1830</title>
<path fill="#ffffff" stroke="#ffffff" d="M157,-258.5C157,-258.5 210.75,-258.5 210.75,-258.5 216.75,-258.5 222.75,-264.5 222.75,-270.5 222.75,-270.5 222.75,-295.5 222.75,-295.5 222.75,-301.5 216.75,-307.5 210.75,-307.5 210.75,-307.5 157,-307.5 157,-307.5 151,-307.5 145,-301.5 145,-295.5 145,-295.5 145,-270.5 145,-270.5 145,-264.5 151,-258.5 157,-258.5"/>
<text text-anchor="middle" x="183.88" y="-290.2" font-family="Times New Roman,serif" font-size="14.00">животное</text>
<polyline fill="none" stroke="#ffffff" points="145,-283 222.75,-283"/>
<text text-anchor="middle" x="162.75" y="-265.7" font-family="Times New Roman,serif" font-size="14.00">ДА</text>
<polyline fill="none" stroke="#ffffff" points="180.5,-258.5 180.5,-283"/>
<text text-anchor="middle" x="201.62" y="-265.7" font-family="Times New Roman,serif" font-size="14.00">НЕТ</text>
</g>
<!-- node000001a3cefb1860 -->
<g id="node2" class="node">
<title>node000001a3cefb1860</title>
<path fill="#ffffff" stroke="#ffffff" d="M106.25,-172.5C106.25,-172.5 163.5,-172.5 163.5,-172.5 169.5,-172.5 175.5,-178.5 175.5,-184.5 175.5,-184.5 175.5,-209.5 175.5,-209.5 175.5,-215.5 169.5,-221.5 163.5,-221.5 163.5,-221.5 106.25,-221.5 106.25,-221.5 100.25,-221.5 94.25,-215.5 94.25,-209.5 94.25,-209.5 94.25,-184.5 94.25,-184.5 94.25,-178.5 100.25,-172.5 106.25,-172.5"/>
<text text-anchor="middle" x="134.88" y="-204.2" font-family="Times New Roman,serif" font-size="14.00">имеет член</text>
<polyline fill="none" stroke="#ffffff" points="94.25,-197 175.5,-197"/>
<text text-anchor="middle" x="112.5" y="-179.7" font-family="Times New Roman,serif" font-size="14.00">ДА</text>
<polyline fill="none" stroke="#ffffff" points="130.75,-172.5 130.75,-197"/>
<text text-anchor="middle" x="152.88" y="-179.7" font-family="Times New Roman,serif" font-size="14.00">НЕТ</text>
</g>
<!-- node000001a3cefb1830&#45;&gt;node000001a3cefb1860 -->
<g id="edge1" class="edge">
<title>node000001a3cefb1830&#45;&gt;node000001a3cefb1860</title>
<path fill="none" stroke="black" d="M169.96,-258.15C165.15,-249.91 159.67,-240.5 154.49,-231.62"/>
<polygon fill="black" stroke="black" points="157.64,-230.09 149.58,-223.21 151.6,-233.61 157.64,-230.09"/>
</g>
<!-- node000001a3cefb1848 -->
<g id="node3" class="node">
<title>node000001a3cefb1848</title>
<path fill="#ffffff" stroke="#ffffff" d="M206,-172.5C206,-172.5 259.75,-172.5 259.75,-172.5 265.75,-172.5 271.75,-178.5 271.75,-184.5 271.75,-184.5 271.75,-209.5 271.75,-209.5 271.75,-215.5 265.75,-221.5 259.75,-221.5 259.75,-221.5 206,-221.5 206,-221.5 200,-221.5 194,-215.5 194,-209.5 194,-209.5 194,-184.5 194,-184.5 194,-178.5 200,-172.5 206,-172.5"/>
<text text-anchor="middle" x="232.88" y="-204.2" font-family="Times New Roman,serif" font-size="14.00">кот</text>
<polyline fill="none" stroke="#ffffff" points="194,-197 271.75,-197"/>
<text text-anchor="middle" x="211.75" y="-179.7" font-family="Times New Roman,serif" font-size="14.00">ДА</text>
<polyline fill="none" stroke="#ffffff" points="229.5,-172.5 229.5,-197"/>
<text text-anchor="middle" x="250.62" y="-179.7" font-family="Times New Roman,serif" font-size="14.00">НЕТ</text>
</g>
<!-- node000001a3cefb1830&#45;&gt;node000001a3cefb1848 -->
<g id="edge2" class="edge">
<title>node000001a3cefb1830&#45;&gt;node000001a3cefb1848</title>
<path fill="none" stroke="black" d="M197.79,-258.15C202.6,-249.91 208.08,-240.5 213.26,-231.62"/>
<polygon fill="black" stroke="black" points="216.15,-233.61 218.17,-223.21 210.11,-230.09 216.15,-233.61"/>
</g>
<!-- node000001a3cefb1890 -->
<g id="node4" class="node">
<title>node000001a3cefb1890</title>
<path fill="#ffffff" stroke="#ffffff" d="M60,-86.5C60,-86.5 113.75,-86.5 113.75,-86.5 119.75,-86.5 125.75,-92.5 125.75,-98.5 125.75,-98.5 125.75,-123.5 125.75,-123.5 125.75,-129.5 119.75,-135.5 113.75,-135.5 113.75,-135.5 60,-135.5 60,-135.5 54,-135.5 48,-129.5 48,-123.5 48,-123.5 48,-98.5 48,-98.5 48,-92.5 54,-86.5 60,-86.5"/>
<text text-anchor="middle" x="86.88" y="-118.2" font-family="Times New Roman,serif" font-size="14.00">ебал деда</text>
<polyline fill="none" stroke="#ffffff" points="48,-111 125.75,-111"/>
<text text-anchor="middle" x="65.75" y="-93.7" font-family="Times New Roman,serif" font-size="14.00">ДА</text>
<polyline fill="none" stroke="#ffffff" points="83.5,-86.5 83.5,-111"/>
<text text-anchor="middle" x="104.62" y="-93.7" font-family="Times New Roman,serif" font-size="14.00">НЕТ</text>
</g>
<!-- node000001a3cefb1860&#45;&gt;node000001a3cefb1890 -->
<g id="edge3" class="edge">
<title>node000001a3cefb1860&#45;&gt;node000001a3cefb1890</title>
<path fill="none" stroke="black" d="M121.25,-172.15C116.54,-163.91 111.16,-154.5 106.09,-145.62"/>
<polygon fill="black" stroke="black" points="109.29,-144.17 101.29,-137.22 103.21,-147.64 109.29,-144.17"/>
</g>
<!-- node000001a3cefb1878 -->
<g id="node5" class="node">
<title>node000001a3cefb1878</title>
<path fill="#ffffff" stroke="#ffffff" d="M156,-86.5C156,-86.5 209.75,-86.5 209.75,-86.5 215.75,-86.5 221.75,-92.5 221.75,-98.5 221.75,-98.5 221.75,-123.5 221.75,-123.5 221.75,-129.5 215.75,-135.5 209.75,-135.5 209.75,-135.5 156,-135.5 156,-135.5 150,-135.5 144,-129.5 144,-123.5 144,-123.5 144,-98.5 144,-98.5 144,-92.5 150,-86.5 156,-86.5"/>
<text text-anchor="middle" x="182.88" y="-118.2" font-family="Times New Roman,serif" font-size="14.00">дед</text>
<polyline fill="none" stroke="#ffffff" points="144,-111 221.75,-111"/>
<text text-anchor="middle" x="161.75" y="-93.7" font-family="Times New Roman,serif" font-size="14.00">ДА</text>
<polyline fill="none" stroke="#ffffff" points="179.5,-86.5 179.5,-111"/>
<text text-anchor="middle" x="200.62" y="-93.7" font-family="Times New Roman,serif" font-size="14.00">НЕТ</text>
</g>
<!-- node000001a3cefb1860&#45;&gt;node000001a3cefb1878 -->
<g id="edge4" class="edge">
<title>node000001a3cefb1860&#45;&gt;node000001a3cefb1878</title>
<path fill="none" stroke="black" d="M148.5,-172.15C153.21,-163.91 158.59,-154.5 163.66,-145.62"/>
<polygon fill="black" stroke="black" points="166.54,-147.64 168.46,-137.22 160.46,-144.17 166.54,-147.64"/>
</g>
<!-- node000001a3cefb18c0 -->
<g id="node6" class="node">
<title>node000001a3cefb18c0</title>
<path fill="#ffffff" stroke="#ffffff" d="M12,-0.5C12,-0.5 65.75,-0.5 65.75,-0.5 71.75,-0.5 77.75,-6.5 77.75,-12.5 77.75,-12.5 77.75,-37.5 77.75,-37.5 77.75,-43.5 71.75,-49.5 65.75,-49.5 65.75,-49.5 12,-49.5 12,-49.5 6,-49.5 0,-43.5 0,-37.5 0,-37.5 0,-12.5 0,-12.5 0,-6.5 6,-0.5 12,-0.5"/>
<text text-anchor="middle" x="38.88" y="-32.2" font-family="Times New Roman,serif" font-size="14.00">сева</text>
<polyline fill="none" stroke="#ffffff" points="0,-25 77.75,-25"/>
<text text-anchor="middle" x="17.75" y="-7.7" font-family="Times New Roman,serif" font-size="14.00">ДА</text>
<polyline fill="none" stroke="#ffffff" points="35.5,-0.5 35.5,-25"/>
<text text-anchor="middle" x="56.62" y="-7.7" font-family="Times New Roman,serif" font-size="14.00">НЕТ</text>
</g>
<!-- node000001a3cefb1890&#45;&gt;node000001a3cefb18c0 -->
<g id="edge5" class="edge">
<title>node000001a3cefb1890&#45;&gt;node000001a3cefb18c0</title>
<path fill="none" stroke="black" d="M73.25,-86.15C68.54,-77.91 63.16,-68.5 58.09,-59.62"/>
<polygon fill="black" stroke="black" points="61.29,-58.17 53.29,-51.22 55.21,-61.64 61.29,-58.17"/>
</g>
<!-- node000001a3cefb18a8 -->
<g id="node7" class="node">
<title>node000001a3cefb18a8</title>
<path fill="#ffffff" stroke="#ffffff" d="M108,-0.5C108,-0.5 161.75,-0.5 161.75,-0.5 167.75,-0.5 173.75,-6.5 173.75,-12.5 173.75,-12.5 173.75,-37.5 173.75,-37.5 173.75,-43.5 167.75,-49.5 161.75,-49.5 161.75,-49.5 108,-49.5 108,-49.5 102,-49.5 96,-43.5 96,-37.5 96,-37.5 96,-12.5 96,-12.5 96,-6.5 102,-0.5 108,-0.5"/>
<text text-anchor="middle" x="134.88" y="-32.2" font-family="Times New Roman,serif" font-size="14.00">кирилл</text>
<polyline fill="none" stroke="#ffffff" points="96,-25 173.75,-25"/>
<text text-anchor="middle" x="113.75" y="-7.7" font-family="Times New Roman,serif" font-size="14.00">ДА</text>
<polyline fill="none" stroke="#ffffff" points="131.5,-0.5 131.5,-25"/>
<text text-anchor="middle" x="152.62" y="-7.7" font-family="Times New Roman,serif" font-size="14.00">НЕТ</text>
</g>
<!-- node000001a3cefb1890&#45;&gt;node000001a3cefb18a8 -->
<g id="edge6" class="edge">
<title>node000001a3cefb1890&#45;&gt;node000001a3cefb18a8</title>
<path fill="none" stroke="black" d="M100.5,-86.15C105.21,-77.91 110.59,-68.5 115.66,-59.62"/>
<polygon fill="black" stroke="black" points="118.54,-61.64 120.46,-51.22 112.46,-58.17 118.54,-61.64"/>
</g>
</g>
</svg>
